PathFileType	4	(X/Y/Z)	Patient4_TMGait_0pt6_01_right_04.trc.trc
DataRate	CameraRate	NumFrames	NumMarkers	Units	OrigDataRate	OrigDataStartFrame	OrigNumFrames
81.871345029240	81.871345029240	5	33	mm	81.871345029240	124	       141
Frame#	Time	Sacral			L.Shoulder			Chest			R.Shoulder			Neck			R.ASIS			L.ASIS			R.Thigh.Superior			R.Thigh.Lateral			R.Thigh.Inferior			R.Patella			L.Thigh.Superior			L.Thigh.Lateral			L.Thigh.Inferior			L.Patella			L.Shank.Superior			L.Shank.Lateral			L.Shank.Inferior			R.Shank.Superior			R.Shank.Lateral			R.Shank.Inferior			R.Heel			R.Midfoot.Superior			R.Midfoot.Lateral			R.Toe			L.Heel			L.Midfoot.Lateral			L.Midfoot.Superior			L.Toe			L.Elbow			L.Wrist			R.Elbow			R.Wrist			
		X1	Y1	Z1	X2	Y2	Z2	X3	Y3	Z3	X4	Y4	Z4	X5	Y5	Z5	X6	Y6	Z6	X7	Y7	Z7	X8	Y8	Z8	X9	Y9	Z9	X10	Y10	Z10	X11	Y11	Z11	X12	Y12	Z12	X13	Y13	Z13	X14	Y14	Z14	X15	Y15	Z15	X16	Y16	Z16	X17	Y17	Z17	X18	Y18	Z18	X19	Y19	Z19	X20	Y20	Z20	X21	Y21	Z21	X22	Y22	Z22	X23	Y23	Z23	X24	Y24	Z24	X25	Y25	Z25	X26	Y26	Z26	X27	Y27	Z27	X28	Y28	Z28	X29	Y29	Z29	X30	Y30	Z30	X31	Y31	Z31	X32	Y32	Z32	X33	Y33	Z33	

124	5.692357142857	629.347837301176	988.950140641700	441.272905616364	808.736123958218	1415.415625957778	266.795273295726	895.157387464328	1356.339920566307	440.543246321859	789.429060204758	1431.233552885105	600.859778850142	775.954910808774	1481.116565637518	416.615089773796	841.822939360485	932.665550121255	584.090899389427	858.251386146509	947.437425783971	309.913275926763	915.950230603981	752.268228644375	559.239363561872	859.416601502164	628.126596791199	617.319340557182	952.354088369051	593.403951642765	542.315583803080	979.888164547153	511.006552296431	551.905899348040	853.264522905484	719.395345260969	337.247582095888	736.858662778845	628.050538870369	267.983799021485	788.314439976243	532.905352392218	336.144628236342	769.042328317820	464.491782800502	344.688023511151	732.234366154016	399.716843615920	334.155257353798	625.917385874584	302.566904572711	278.787534361539	651.615352305038	184.455904076033	351.154008461837	969.173877241631	421.082360505454	557.694915006961	917.848716941684	303.139379781641	613.073787441301	990.724848133300	222.123888632925	559.017044047259	900.835601688821	39.964028199942	522.401002629785	1063.632258209658	109.809647744626	563.858683346786	984.151451861909	37.155515351184	597.215035833505	1187.415450555479	71.253122331015	591.559620988213	503.584977735370	39.133469483068	390.102348481993	577.732399096706	34.648460998874	309.906688494783	662.155215951965	94.314924504579	337.435984424333	789.981106094208	41.045292379066	307.881498646025	861.886155586751	1070.213903925992	145.168700953620	1101.200364423709	1110.615454689430	211.656998711333	656.477326701918	1122.786582485559	729.210777766922	638.695005741079	865.855850139311	769.475783846997	
125	5.704571428571	631.119698318036	987.233230105805	443.983994334649	808.944786559286	1414.704350288803	270.284680468302	895.548748234932	1355.640612100223	443.960027306439	789.168272122769	1429.428115529998	604.426904076246	775.836776675792	1479.933747064920	420.204079303338	844.145192709956	931.484931983402	586.660591680167	860.002036629058	946.254847217191	312.581192243924	919.362501507795	751.174422729683	561.207742300881	861.447407170260	626.630277604789	617.936671266164	954.826281224969	592.549659437384	543.367299307187	980.814573506005	509.209087696504	551.710361784098	855.083795972208	717.987113302314	339.433735920110	738.461608769663	626.715633504201	270.323716732941	790.037673294325	531.201607429934	338.289252439495	770.632537803403	461.860761839056	346.426963043113	731.886395230077	397.735025048389	335.797748141786	623.514274657770	303.051896350630	280.044017864184	646.599697108667	184.016460275821	351.640098993405	969.587411102364	418.726782876993	557.314129372182	917.152002439281	301.379281123400	612.744391703913	988.133715978349	219.628986571227	557.845357133852	894.592671783239	39.995075679340	521.548246196788	1058.916198385138	106.977433263394	562.256439988263	977.778773702953	36.768537605754	596.502799747328	1181.855739278964	66.312575788540	590.111181062098	496.262657503478	40.554511967591	389.670560118855	570.525874189699	35.191436214843	309.742846774604	655.384091862992	94.354424711931	337.251117790645	782.759152833660	40.582800153541	307.795102459695	862.205624762439	1069.717635856853	147.729654998786	1100.043182345224	1113.088319937380	216.548049672403	659.663607297471	1118.144421354518	730.650105982364	646.269614406634	860.474120621448	768.824908424795	
126	5.716785714286	632.810666341188	985.783441001903	446.891575770757	809.094485523516	1414.307692521576	273.935506590088	896.009970290553	1355.163562438232	447.461202045916	789.128501968680	1427.841715425562	608.174355423950	775.809322375312	1479.039059722656	423.982050325575	846.538042623593	930.597881417992	589.241080747251	861.593415769739	945.342783521456	315.268733304395	922.968832632870	750.518287024478	562.893117622889	864.086457325437	625.717145335732	618.659833716307	957.629782489938	592.125716150661	544.262645533636	982.138542682691	507.685745632245	551.623551125476	857.305030466929	716.901103055551	341.666471866461	740.783824008858	625.352783960889	272.807455893117	792.930624070179	529.581109471274	340.478727298374	773.568912721443	459.125118388681	348.068870803767	732.541834987816	395.718369341152	337.428678593234	621.859357192604	303.904274855189	281.338213878519	642.119541898008	183.890860275157	352.042721131957	970.119319291298	416.658057832478	557.059147099694	916.408496454889	300.061030194364	612.779846486533	985.060527671080	217.339638917533	556.860960716964	887.296301513849	40.151281905192	520.974116211687	1053.150567094552	104.365132014837	560.900927685783	970.383224564726	36.490273356409	596.057050324666	1175.286099248214	61.629630569815	588.897792315008	489.074683322427	42.928567243846	389.134802603166	563.394652267703	36.241904248960	309.512385761381	648.908408772479	94.542642684425	336.949978268106	775.481217112685	40.018723747768	307.730026840140	862.237180920658	1069.478684643714	150.373353512733	1098.891846582771	1114.384065697464	221.437184271247	663.507300497196	1113.477199540328	732.152430502366	654.947921894112	855.085959770401	768.103127077527	
127	5.729000000000	634.408167248778	984.657585893393	449.974187549878	809.189219448125	1414.288554298095	277.725654426859	896.533646049508	1354.951656789594	451.019334702787	789.339849654393	1426.551978625725	612.071786368864	775.870183348395	1478.493065562678	427.929290662807	848.944954849454	930.070654650560	591.833225570026	862.986592714181	944.761129947906	317.954015024505	926.540143092400	750.258978861009	564.329436392794	867.098824364748	625.384417364271	619.563870736225	960.475015885792	592.051371003574	545.051894009994	983.605979517723	506.461127890321	551.732874979010	859.916203951614	716.204497354185	343.940800393079	743.872795265684	624.002493742351	275.398703959470	797.066263352114	528.108394518167	342.675639296784	777.926669886607	456.371745092900	349.549479734119	734.297143480644	393.740340949772	338.999349115642	621.060194581465	305.222403159136	282.648405785522	638.297771619749	184.202559276294	352.355019438081	970.599395664580	414.937519237987	557.012905066495	915.560650980046	299.170966299639	613.199169352928	981.639448872236	215.357396086446	556.135119851016	879.448948697636	40.359745971311	520.663106963329	1046.693448762209	102.160579380603	559.842181749494	962.467349828904	36.303654753570	595.856134763630	1168.130948723695	57.548575616795	587.957028001286	482.123065492488	46.505485676331	388.522950568147	556.393368609419	37.986482413811	309.231319027503	642.825574599806	94.953860701284	336.539068463040	768.135983743627	39.339827588829	307.706460393162	861.924161930319	1069.558713517027	153.118198348077	1097.741513862827	1114.503356445074	226.295861654021	668.021864060489	1108.910394734347	733.715204870437	664.699643174221	849.858099018305	767.325220440791	
128	5.741214285714	635.903544769363	983.898373691710	453.210569769561	809.217854481993	1414.691640555418	281.631434502753	897.100623422835	1355.038654935209	454.603597737228	789.814470777710	1425.619263849567	616.085116525165	775.999320496039	1478.334248907276	432.023742047917	851.317756227252	929.942723675099	594.431752148608	864.149507173031	944.552042744769	320.609186771760	929.850972246168	750.318899893448	565.588356303861	870.183683559793	625.572125479632	620.700010735195	963.059656648884	592.216495412111	545.814351318323	984.921420644112	505.518000471224	552.113050169968	862.899107192328	715.948374051355	346.240282321844	747.759997945163	622.706821540334	278.047241999613	802.481463230246	526.848513659925	344.828605932399	783.731596847840	453.700755643635	350.809127316243	737.231026194262	391.880118246597	340.462340608010	621.224183650490	307.091424860934	283.954902790609	635.260923545115	185.071751830367	352.585457454304	970.809313231045	413.575836846650	557.240759435571	914.455688436837	298.655329346047	613.971280942326	977.914759210021	213.733299593932	555.714587411082	871.422624136439	40.566815859337	520.578873434921	1039.816234921568	100.475316979956	559.091373356203	954.399579058022	36.188827885216	595.861629294313	1160.704710779015	54.274763646324	587.296661866182	475.541048161383	51.505084773980	387.884845416179	549.603208706229	40.617961808632	308.931018168261	637.242858548797	95.676706571889	336.044109186032	760.732067185126	38.538646756469	307.743629662372	861.214812415677	1070.012352657032	155.980635022101	1096.559592105696	1113.455157602041	231.099407633779	673.216204489968	1104.557416536510	735.345230008385	675.511139959427	844.950640276266	766.503034630658	
